<svg width="133" height="89" viewBox="0 0 133 89" fill="none" xmlns="http://www.w3.org/2000/svg">
<path d="M0 82.3657H132.662C132.849 82.3657 133 82.5169 133 82.7034V82.8087C133 85.1396 131.11 87.0291 128.78 87.0291H4.22037C1.88952 87.0291 0 85.1396 0 82.8087V82.3657Z" fill="#2F4CE5"/>
<path fill-rule="evenodd" clip-rule="evenodd" d="M0.038146 83.3786C0.0129905 83.1922 0 83.002 0 82.8087V82.3657H132.662C132.849 82.3657 133 82.5169 133 82.7034V82.8087C133 85.1396 131.11 87.0291 128.78 87.0291H4.22037C2.08279 87.0291 0.316377 85.4399 0.038146 83.3786ZM1.06336 83.3786C1.33225 84.8782 2.64341 86.0162 4.22037 86.0162H128.78C130.357 86.0162 131.668 84.8782 131.937 83.3786H1.06336Z" fill="#2F4CE5"/>
<path d="M15.8553 12.861C15.8553 9.31807 18.7274 6.44598 22.2703 6.44598H110.916C114.459 6.44598 117.331 9.31806 117.331 12.8609V74.345H15.8553V12.861Z" fill="white"/>
<path fill-rule="evenodd" clip-rule="evenodd" d="M110.916 7.45887H22.2703C19.2868 7.45887 16.8682 9.87747 16.8682 12.861V73.3321H116.318V12.8609C116.318 9.87746 113.899 7.45887 110.916 7.45887ZM22.2703 6.44598C18.7274 6.44598 15.8553 9.31807 15.8553 12.861V74.345H117.331V12.8609C117.331 9.31806 114.459 6.44598 110.916 6.44598H22.2703Z" fill="#2F4CE5"/>
<path d="M20.7056 12.8033C20.7056 11.1464 22.0487 9.80328 23.7056 9.80328H109.668C111.325 9.80328 112.668 11.1464 112.668 12.8033V67.987C112.668 69.6439 111.325 70.987 109.668 70.987H23.7056C22.0487 70.987 20.7056 69.6439 20.7056 67.987V12.8033Z" fill="#2F4CE5"/>
<path fill-rule="evenodd" clip-rule="evenodd" d="M109.668 10.8162H23.7056C22.6081 10.8162 21.7185 11.7058 21.7185 12.8033V67.987C21.7185 69.0845 22.6081 69.9741 23.7056 69.9741H109.668C110.765 69.9741 111.655 69.0845 111.655 67.987V12.8033C111.655 11.7058 110.765 10.8162 109.668 10.8162ZM23.7056 9.80328C22.0487 9.80328 20.7056 11.1464 20.7056 12.8033V67.987C20.7056 69.6439 22.0487 70.987 23.7056 70.987H109.668C111.325 70.987 112.668 69.6439 112.668 67.987V12.8033C112.668 11.1464 111.325 9.80328 109.668 9.80328H23.7056Z" fill="#2F4CE5"/>
<mask id="mask0_183_1354" style="mask-type:alpha" maskUnits="userSpaceOnUse" x="0" y="71" width="133" height="18">
<path d="M0 71.1742H133V88.522H0V71.1742Z" fill="#C4C4C4"/>
</mask>
<g mask="url(#mask0_183_1354)">
<path d="M15.8553 73.7852H117.331L134.306 82.9254H-1.02612L15.8553 73.7852Z" fill="white"/>
<path fill-rule="evenodd" clip-rule="evenodd" d="M16.1119 74.798L2.97196 81.9125H130.288L117.075 74.798H16.1119ZM117.331 73.7852H15.8553L-1.02612 82.9254H134.306L117.331 73.7852Z" fill="#2F4CE5"/>
</g>
<path d="M24.0946 75.4642H109.38L113.414 78.4487H19.7727L24.0946 75.4642Z" fill="#2F4CE5"/>
<path d="M57.0798 84.4181C57.0798 84.2121 57.2469 84.045 57.4529 84.045H75.3603C75.5664 84.045 75.7334 84.2121 75.7334 84.4181C75.7334 84.6242 75.5664 84.7912 75.3603 84.7912H57.4529C57.2469 84.7912 57.0798 84.6242 57.0798 84.4181Z" fill="#2F4CE5"/>
<path fill-rule="evenodd" clip-rule="evenodd" d="M75 9.5V8H76.4286V9H76V9.5H75ZM82.1429 8H79.2857V9H82.1429V8ZM75 30.5H76V32C76 32.273 76.0542 32.5309 76.1514 32.7653L75.2276 33.1484C75.081 32.7946 75 32.4068 75 32V30.5ZM85 8V9H87.8571V8H85ZM90.7143 8V9H93.5714V8H90.7143ZM96.4286 8V9H99.2857V8H96.4286ZM102.143 8V9H105V8H102.143ZM107.857 8V9H110.714V8H107.857ZM113.571 8V9H114V9.35H115V8H113.571ZM115 12.05H114V14.75H115V12.05ZM115 17.45H114V20.15H115V17.45ZM115 22.85H114V25.55H115V22.85ZM115 28.25H114V30.95H115V28.25ZM115 33.65H114V34H113.458V35H115V33.65ZM110.375 35V34H107.292V35H110.375ZM104.208 35V34H101.125V35H104.208ZM98.0417 35V34H94.9583V35H98.0417ZM91.875 35V34H88.7917V35H91.875ZM85.7083 35V34H82.625V35H85.7083ZM79.5417 35V34H78C77.727 34 77.4691 33.9458 77.2347 33.8486L76.8516 34.7724C77.2054 34.919 77.5932 35 78 35H79.5417ZM75 27.5H76V24.5H75V27.5ZM75 21.5H76V18.5H75V21.5ZM75 15.5H76V12.5H75V15.5Z" fill="white"/>
<path d="M78 4.45453C78 1.99436 79.9944 0 82.4545 0H124.525C126.985 0 128.98 1.99436 128.98 4.45453V27.2221C128.98 29.6823 126.985 31.6766 124.525 31.6766H82.4545C79.9944 31.6766 78 29.6823 78 27.2221V4.45453Z" fill="#E5EBFD"/>
<path fill-rule="evenodd" clip-rule="evenodd" d="M124.525 1H82.4545C80.5466 1 79 2.54664 79 4.45453V27.2221C79 29.13 80.5466 30.6766 82.4545 30.6766H124.525C126.433 30.6766 127.98 29.13 127.98 27.2221V4.45453C127.98 2.54664 126.433 1 124.525 1ZM82.4545 0C79.9944 0 78 1.99436 78 4.45453V27.2221C78 29.6823 79.9944 31.6766 82.4545 31.6766H124.525C126.985 31.6766 128.98 29.6823 128.98 27.2221V4.45453C128.98 1.99436 126.985 0 124.525 0H82.4545Z" fill="#2F4CE5"/>
<path d="M98.3101 12.4591V10.6482L89.7524 15.7692V17.1516L98.3101 21.9318V20.121L91.427 16.4409V16.3533L98.3101 12.4591Z" fill="#2F4CE5"/>
<path d="M101.523 24.9888L106.498 7.95148H105.047L100.072 24.9888H101.523Z" fill="#2F4CE5"/>
<path d="M108.25 12.4493L115.133 16.3436V16.4312L108.25 20.1113V21.9221L116.808 17.1419V15.7594L108.25 10.6385V12.4493Z" fill="#2F4CE5"/>
<path fill-rule="evenodd" clip-rule="evenodd" d="M68 18.5H31V17.5H68V18.5Z" fill="white"/>
<path fill-rule="evenodd" clip-rule="evenodd" d="M47 25.5H31V24.5H47V25.5Z" fill="white"/>
<path fill-rule="evenodd" clip-rule="evenodd" d="M62 32.5H31V31.5H62V32.5Z" fill="white"/>
<path fill-rule="evenodd" clip-rule="evenodd" d="M97 46.5L31 46.5L31 45.5L97 45.5L97 46.5Z" fill="white"/>
<path fill-rule="evenodd" clip-rule="evenodd" d="M85 53.5L31 53.5L31 52.5L85 52.5L85 53.5Z" fill="white"/>
<path fill-rule="evenodd" clip-rule="evenodd" d="M104 60.5L31 60.5L31 59.5L104 59.5L104 60.5Z" fill="white"/>
<path fill-rule="evenodd" clip-rule="evenodd" d="M77 39.5L31 39.5L31 38.5L77 38.5L77 39.5Z" fill="white"/>
<path fill-rule="evenodd" clip-rule="evenodd" d="M24 38.5H27V39.5H24V38.5Z" fill="white"/>
<path fill-rule="evenodd" clip-rule="evenodd" d="M24 52.5H27V53.5H24V52.5Z" fill="white"/>
<path fill-rule="evenodd" clip-rule="evenodd" d="M24 31.5H27V32.5H24V31.5Z" fill="white"/>
<path fill-rule="evenodd" clip-rule="evenodd" d="M24 17.5H27V18.5H24V17.5Z" fill="white"/>
</svg>
