<svg width="133" height="89" viewBox="0 0 133 89" fill="none" xmlns="http://www.w3.org/2000/svg">
<path d="M0 82.3657H132.662C132.849 82.3657 133 82.5169 133 82.7034V82.8087C133 85.1396 131.11 87.0291 128.78 87.0291H4.22037C1.88952 87.0291 0 85.1396 0 82.8087V82.3657Z" fill="#2F4CE5"/>
<path fill-rule="evenodd" clip-rule="evenodd" d="M0.038146 83.3786C0.0129905 83.1922 0 83.002 0 82.8087V82.3657H132.662C132.849 82.3657 133 82.5169 133 82.7034V82.8087C133 85.1396 131.11 87.0291 128.78 87.0291H4.22037C2.08279 87.0291 0.316377 85.4399 0.038146 83.3786ZM1.06336 83.3786C1.33225 84.8782 2.64341 86.0162 4.22037 86.0162H128.78C130.357 86.0162 131.668 84.8782 131.937 83.3786H1.06336Z" fill="#2F4CE5"/>
<path d="M15.8553 12.861C15.8553 9.31807 18.7274 6.44598 22.2703 6.44598H110.916C114.459 6.44598 117.331 9.31806 117.331 12.8609V74.345H15.8553V12.861Z" fill="white"/>
<path fill-rule="evenodd" clip-rule="evenodd" d="M110.916 7.45887H22.2703C19.2868 7.45887 16.8682 9.87747 16.8682 12.861V73.3321H116.318V12.8609C116.318 9.87746 113.899 7.45887 110.916 7.45887ZM22.2703 6.44598C18.7274 6.44598 15.8553 9.31807 15.8553 12.861V74.345H117.331V12.8609C117.331 9.31806 114.459 6.44598 110.916 6.44598H22.2703Z" fill="#2F4CE5"/>
<path d="M20.7056 12.8033C20.7056 11.1464 22.0487 9.80328 23.7056 9.80328H109.668C111.325 9.80328 112.668 11.1464 112.668 12.8033V67.987C112.668 69.6439 111.325 70.987 109.668 70.987H23.7056C22.0487 70.987 20.7056 69.6439 20.7056 67.987V12.8033Z" fill="#2F4CE5"/>
<path fill-rule="evenodd" clip-rule="evenodd" d="M109.668 10.8162H23.7056C22.6081 10.8162 21.7185 11.7058 21.7185 12.8033V67.987C21.7185 69.0845 22.6081 69.9741 23.7056 69.9741H109.668C110.765 69.9741 111.655 69.0845 111.655 67.987V12.8033C111.655 11.7058 110.765 10.8162 109.668 10.8162ZM23.7056 9.80328C22.0487 9.80328 20.7056 11.1464 20.7056 12.8033V67.987C20.7056 69.6439 22.0487 70.987 23.7056 70.987H109.668C111.325 70.987 112.668 69.6439 112.668 67.987V12.8033C112.668 11.1464 111.325 9.80328 109.668 9.80328H23.7056Z" fill="#2F4CE5"/>
<mask id="mask0_183_1249" style="mask-type:alpha" maskUnits="userSpaceOnUse" x="0" y="71" width="133" height="18">
<path d="M0 71.1742H133V88.522H0V71.1742Z" fill="#C4C4C4"/>
</mask>
<g mask="url(#mask0_183_1249)">
<path d="M15.8553 73.7852H117.331L134.306 82.9254H-1.02612L15.8553 73.7852Z" fill="white"/>
<path fill-rule="evenodd" clip-rule="evenodd" d="M16.1119 74.798L2.97196 81.9125H130.288L117.075 74.798H16.1119ZM117.331 73.7852H15.8553L-1.02612 82.9254H134.306L117.331 73.7852Z" fill="#2F4CE5"/>
</g>
<path d="M24.0946 75.4642H109.38L113.414 78.4487H19.7727L24.0946 75.4642Z" fill="#2F4CE5"/>
<path d="M57.0798 84.4181C57.0798 84.2121 57.2469 84.045 57.4529 84.045H75.3603C75.5664 84.045 75.7334 84.2121 75.7334 84.4181C75.7334 84.6242 75.5664 84.7912 75.3603 84.7912H57.4529C57.2469 84.7912 57.0798 84.6242 57.0798 84.4181Z" fill="#2F4CE5"/>
<path d="M78 4.45453C78 1.99436 79.9944 0 82.4545 0H124.525C126.985 0 128.98 1.99436 128.98 4.45453V27.2221C128.98 29.6823 126.985 31.6766 124.525 31.6766H82.4545C79.9944 31.6766 78 29.6823 78 27.2221V4.45453Z" fill="#E5EBFD"/>
<path fill-rule="evenodd" clip-rule="evenodd" d="M124.525 0.863761H82.4545C80.4714 0.863761 78.8638 2.4714 78.8638 4.45453V27.2221C78.8638 29.2052 80.4714 30.8129 82.4545 30.8129H124.525C126.508 30.8129 128.116 29.2052 128.116 27.2221V4.45453C128.116 2.4714 126.508 0.863761 124.525 0.863761ZM82.4545 0C79.9944 0 78 1.99436 78 4.45453V27.2221C78 29.6823 79.9944 31.6766 82.4545 31.6766H124.525C126.985 31.6766 128.98 29.6823 128.98 27.2221V4.45453C128.98 1.99436 126.985 0 124.525 0H82.4545Z" fill="#2F4CE5"/>
<path d="M98.3101 12.4591V10.6482L89.7524 15.7692V17.1516L98.3101 21.9318V20.121L91.427 16.4409V16.3533L98.3101 12.4591Z" fill="#2F4CE5"/>
<path d="M101.523 24.9888L106.498 7.95148H105.047L100.072 24.9888H101.523Z" fill="#2F4CE5"/>
<path d="M108.25 12.4493L115.133 16.3436V16.4312L108.25 20.1113V21.9221L116.808 17.1419V15.7594L108.25 10.6385V12.4493Z" fill="#2F4CE5"/>
<path fill-rule="evenodd" clip-rule="evenodd" d="M68 18.5L34 18.5L34 17.5L68 17.5L68 18.5Z" fill="white"/>
<path fill-rule="evenodd" clip-rule="evenodd" d="M49 25.5L34 25.5L34 24.5L49 24.5L49 25.5Z" fill="white"/>
<path fill-rule="evenodd" clip-rule="evenodd" d="M30 18.5H27V17.5H30V18.5Z" fill="white"/>
<path d="M25 39C25 36.7909 26.7909 35 29 35H105C107.209 35 109 36.7909 109 39V70H25V39Z" fill="#E5EBFD"/>
<path d="M30 43C30 41.8954 30.8954 41 32 41H56C57.1046 41 58 41.8954 58 43V50C58 51.1046 57.1046 52 56 52H32C30.8954 52 30 51.1046 30 50V43Z" fill="#2F4CE5"/>
<path d="M30 57C30 55.8954 30.8954 55 32 55H101C102.105 55 103 55.8954 103 57V64C103 65.1046 102.105 66 101 66H32C30.8954 66 30 65.1046 30 64V57Z" fill="white"/>
<path fill-rule="evenodd" clip-rule="evenodd" d="M31.2344 65.8482L31.6175 64.9245C31.734 64.9728 31.8626 65 32 65H33.4375V66H32C31.7288 66 31.4702 65.946 31.2344 65.8482ZM99.5625 66V65H101C101.137 65 101.266 64.9728 101.383 64.9245L101.766 65.8482C101.53 65.946 101.271 66 101 66H99.5625ZM103 58.75H102V57C102 56.8626 101.973 56.734 101.925 56.6175L102.848 56.2344C102.946 56.4702 103 56.7288 103 57V58.75ZM33.4375 55H32C31.7288 55 31.4702 55.054 31.2344 55.1518L31.6175 56.0755C31.734 56.0272 31.8626 56 32 56H33.4375V55ZM30 62.25H31V64C31 64.1374 31.0272 64.266 31.0755 64.3825L30.1518 64.7656C30.054 64.5298 30 64.2712 30 64V62.25ZM30 58.75H31V57C31 56.8626 31.0272 56.734 31.0755 56.6175L30.1518 56.2344C30.054 56.4702 30 56.7288 30 57V58.75ZM36.3125 55V56H39.1875V55H36.3125ZM42.0625 55V56H44.9375V55H42.0625ZM47.8125 55V56H50.6875V55H47.8125ZM53.5625 55V56H56.4375V55H53.5625ZM59.3125 55V56H62.1875V55H59.3125ZM65.0625 55V56H67.9375V55H65.0625ZM70.8125 55V56H73.6875V55H70.8125ZM76.5625 55V56H79.4375V55H76.5625ZM82.3125 55V56H85.1875V55H82.3125ZM88.0625 55V56H90.9375V55H88.0625ZM93.8125 55V56H96.6875V55H93.8125ZM99.5625 55V56H101C101.137 56 101.266 56.0272 101.383 56.0755L101.766 55.1518C101.53 55.054 101.271 55 101 55H99.5625ZM103 62.25H102V64C102 64.1374 101.973 64.266 101.925 64.3825L102.848 64.7656C102.946 64.5298 103 64.2712 103 64V62.25ZM96.6875 66V65H93.8125V66H96.6875ZM90.9375 66V65H88.0625V66H90.9375ZM85.1875 66V65H82.3125V66H85.1875ZM79.4375 66V65H76.5625V66H79.4375ZM73.6875 66V65H70.8125V66H73.6875ZM67.9375 66V65H65.0625V66H67.9375ZM62.1875 66V65H59.3125V66H62.1875ZM56.4375 66V65H53.5625V66H56.4375ZM50.6875 66V65H47.8125V66H50.6875ZM44.9375 66V65H42.0625V66H44.9375ZM39.1875 66V65H36.3125V66H39.1875Z" fill="#2F4CE5"/>
<path d="M65 42.5C65 41.6716 65.6716 41 66.5 41H101.5C102.328 41 103 41.6716 103 42.5C103 43.3284 102.328 44 101.5 44H66.5C65.6716 44 65 43.3284 65 42.5Z" fill="#2F4CE5"/>
<path d="M65 49.5C65 48.6716 65.6716 48 66.5 48H101.5C102.328 48 103 48.6716 103 49.5C103 50.3284 102.328 51 101.5 51H66.5C65.6716 51 65 50.3284 65 49.5Z" fill="#2F4CE5"/>
<path fill-rule="evenodd" clip-rule="evenodd" d="M71 31.5H34V30.5H71V31.5Z" fill="white"/>
<path fill-rule="evenodd" clip-rule="evenodd" d="M27 30.5H30V31.5H27V30.5Z" fill="white"/>
</svg>
