<svg width="110" height="84" viewBox="0 0 110 84" fill="none" xmlns="http://www.w3.org/2000/svg">
<path d="M109 15.3213V8.82872C109 7.76208 108.135 6.8974 107.069 6.8974C106.002 6.8974 105.137 7.76208 105.137 8.82872V15.3213C105.137 16.3879 106.002 17.2526 107.069 17.2526C108.135 17.2526 109 16.3879 109 15.3213Z" fill="#2F4CE5"/>
<path fill-rule="evenodd" clip-rule="evenodd" d="M104.864 8.82871C104.864 7.61123 105.851 6.62427 107.069 6.62427C108.286 6.62427 109.273 7.61123 109.273 8.82871V15.3213C109.273 16.5387 108.286 17.5257 107.069 17.5257C105.851 17.5257 104.864 16.5387 104.864 15.3213V8.82871ZM107.069 7.17051C106.153 7.17051 105.411 7.91291 105.411 8.82871V15.3213C105.411 16.2371 106.153 16.9795 107.069 16.9795C107.985 16.9795 108.727 16.2371 108.727 15.3213V8.82871C108.727 7.91291 107.985 7.17051 107.069 7.17051Z" fill="#2F4CE5"/>
<path d="M109 75.3575V68.865C109 67.7983 108.135 66.9337 107.069 66.9337C106.002 66.9337 105.137 67.7983 105.137 68.865V75.3575C105.137 76.4242 106.002 77.2888 107.069 77.2888C108.135 77.2888 109 76.4242 109 75.3575Z" fill="#2F4CE5"/>
<path fill-rule="evenodd" clip-rule="evenodd" d="M104.864 68.865C104.864 67.6475 105.851 66.6605 107.069 66.6605C108.286 66.6605 109.273 67.6475 109.273 68.865V75.3575C109.273 76.575 108.286 77.562 107.069 77.562C105.851 77.562 104.864 76.575 104.864 75.3575V68.865ZM107.069 67.2068C106.153 67.2068 105.411 67.9492 105.411 68.865V75.3575C105.411 76.2733 106.153 77.0157 107.069 77.0157C107.985 77.0157 108.727 76.2733 108.727 75.3575V68.865C108.727 67.9492 107.985 67.2068 107.069 67.2068Z" fill="#2F4CE5"/>
<path d="M4.92076 44.9043V38.4118C4.92076 37.3452 4.05607 36.4805 2.98943 36.4805C1.92279 36.4805 1.05811 37.3452 1.05811 38.4118V44.9043C1.05811 45.971 1.92279 46.8357 2.98943 46.8357C4.05607 46.8357 4.92076 45.971 4.92076 44.9043Z" fill="#2F4CE5"/>
<path fill-rule="evenodd" clip-rule="evenodd" d="M0.785034 38.4118C0.785034 37.1943 1.772 36.2073 2.98948 36.2073C4.20696 36.2073 5.19393 37.1943 5.19393 38.4118V44.9043C5.19393 46.1218 4.20696 47.1088 2.98948 47.1088C1.772 47.1088 0.785034 46.1218 0.785034 44.9043V38.4118ZM2.98948 36.7536C2.07368 36.7536 1.33128 37.496 1.33128 38.4118V44.9043C1.33128 45.8201 2.07368 46.5625 2.98948 46.5625C3.90528 46.5625 4.64768 45.8201 4.64768 44.9043V38.4118C4.64768 37.496 3.90528 36.7536 2.98948 36.7536Z" fill="#2F4CE5"/>
<path d="M104.452 1.14453H5.7218C4.61723 1.14453 3.7218 2.03996 3.7218 3.14453V21.4164C3.7218 22.521 4.61723 23.4164 5.7218 23.4164H104.452C105.556 23.4164 106.452 22.521 106.452 21.4164V3.14453C106.452 2.03996 105.556 1.14453 104.452 1.14453Z" fill="#E5EBFD"/>
<path fill-rule="evenodd" clip-rule="evenodd" d="M3.2218 3.14453C3.2218 1.76382 4.34109 0.644531 5.7218 0.644531H104.452C105.833 0.644531 106.952 1.76382 106.952 3.14453V21.4164C106.952 22.7971 105.833 23.9164 104.452 23.9164H5.7218C4.34109 23.9164 3.2218 22.7971 3.2218 21.4164V3.14453ZM5.7218 1.64453C4.89337 1.64453 4.2218 2.3161 4.2218 3.14453V21.4164C4.2218 22.2448 4.89337 22.9164 5.7218 22.9164H104.452C105.28 22.9164 105.952 22.2448 105.952 21.4164V3.14453C105.952 2.3161 105.28 1.64453 104.452 1.64453H5.7218Z" fill="#2F4CE5"/>
<path d="M104.452 61.1808H5.7218C4.61723 61.1808 3.7218 62.0762 3.7218 63.1808V81.4527C3.7218 82.5572 4.61723 83.4527 5.7218 83.4527H104.452C105.556 83.4527 106.452 82.5572 106.452 81.4527V63.1808C106.452 62.0762 105.556 61.1808 104.452 61.1808Z" fill="#E5EBFD"/>
<path fill-rule="evenodd" clip-rule="evenodd" d="M3.2218 63.1808C3.2218 61.8001 4.34109 60.6808 5.7218 60.6808H104.452C105.833 60.6808 106.952 61.8001 106.952 63.1808V81.4527C106.952 82.8334 105.833 83.9527 104.452 83.9527H5.7218C4.34109 83.9527 3.2218 82.8334 3.2218 81.4527V63.1808ZM5.7218 61.6808C4.89337 61.6808 4.2218 62.3524 4.2218 63.1808V81.4527C4.2218 82.2811 4.89337 82.9527 5.7218 82.9527H104.452C105.28 82.9527 105.952 82.2811 105.952 81.4527V63.1808C105.952 62.3524 105.28 61.6808 104.452 61.6808H5.7218Z" fill="#2F4CE5"/>
<path d="M104.452 30.7276H5.7218C4.61723 30.7276 3.7218 31.623 3.7218 32.7276V50.9995C3.7218 52.1041 4.61723 52.9995 5.7218 52.9995H104.452C105.556 52.9995 106.452 52.1041 106.452 50.9995V32.7276C106.452 31.623 105.556 30.7276 104.452 30.7276Z" fill="#E5EBFD"/>
<path fill-rule="evenodd" clip-rule="evenodd" d="M3.2218 32.7276C3.2218 31.3469 4.34109 30.2276 5.7218 30.2276H104.452C105.833 30.2276 106.952 31.3469 106.952 32.7276V50.9995C106.952 52.3802 105.833 53.4995 104.452 53.4995H5.7218C4.34109 53.4995 3.2218 52.3802 3.2218 50.9995V32.7276ZM5.7218 31.2276C4.89337 31.2276 4.2218 31.8992 4.2218 32.7276V50.9995C4.2218 51.8279 4.89337 52.4995 5.7218 52.4995H104.452C105.28 52.4995 105.952 51.8279 105.952 50.9995V32.7276C105.952 31.8992 105.28 31.2276 104.452 31.2276H5.7218Z" fill="#2F4CE5"/>
<path d="M77.4955 6.8974H10.6528C9.54826 6.8974 8.65283 7.79283 8.65283 8.8974V15.8279C8.65283 16.9325 9.54826 17.8279 10.6528 17.8279H77.4955C78.6001 17.8279 79.4955 16.9325 79.4955 15.8279V8.8974C79.4955 7.79283 78.6001 6.8974 77.4955 6.8974Z" fill="#2F4CE5"/>
<path fill-rule="evenodd" clip-rule="evenodd" d="M8.37976 8.89739C8.37976 7.64198 9.39747 6.62427 10.6529 6.62427H77.4956C78.751 6.62427 79.7687 7.64198 79.7687 8.89739V15.8279C79.7687 17.0833 78.751 18.101 77.4956 18.101H10.6529C9.39747 18.101 8.37976 17.0833 8.37976 15.8279V8.89739ZM10.6529 7.17051C9.69915 7.17051 8.926 7.94366 8.926 8.89739V15.8279C8.926 16.7816 9.69915 17.5547 10.6529 17.5547H77.4956C78.4493 17.5547 79.2225 16.7816 79.2225 15.8279V8.89739C79.2225 7.94366 78.4493 7.17051 77.4956 7.17051H10.6529Z" fill="#2F4CE5"/>
<path d="M77.4955 66.9337H10.6528C9.54826 66.9337 8.65283 67.8291 8.65283 68.9337V75.8641C8.65283 76.9687 9.54826 77.8641 10.6528 77.8641H77.4955C78.6001 77.8641 79.4955 76.9687 79.4955 75.8641V68.9337C79.4955 67.8291 78.6001 66.9337 77.4955 66.9337Z" fill="#2F4CE5"/>
<path fill-rule="evenodd" clip-rule="evenodd" d="M8.37976 68.9336C8.37976 67.6782 9.39747 66.6605 10.6529 66.6605H77.4956C78.751 66.6605 79.7687 67.6782 79.7687 68.9336V75.8641C79.7687 77.1195 78.751 78.1372 77.4956 78.1372H10.6529C9.39747 78.1372 8.37976 77.1195 8.37976 75.8641V68.9336ZM10.6529 67.2068C9.69915 67.2068 8.926 67.9799 8.926 68.9336V75.8641C8.926 76.8179 9.69915 77.591 10.6529 77.591H77.4956C78.4493 77.591 79.2225 76.8179 79.2225 75.8641V68.9336C79.2225 67.9799 78.4493 67.2068 77.4956 67.2068H10.6529Z" fill="#2F4CE5"/>
<path d="M77.4955 36.4805H10.6528C9.54826 36.4805 8.65283 37.3759 8.65283 38.4805V45.4109C8.65283 46.5155 9.54826 47.4109 10.6528 47.4109H77.4955C78.6001 47.4109 79.4955 46.5155 79.4955 45.4109V38.4805C79.4955 37.3759 78.6001 36.4805 77.4955 36.4805Z" fill="white"/>
<path fill-rule="evenodd" clip-rule="evenodd" d="M9.69573 36.1704C9.99119 36.0478 10.3148 35.9805 10.6528 35.9805H12.172V36.9805H10.6528C10.4485 36.9805 10.255 37.021 10.0788 37.0941L9.69573 36.1704ZM15.2103 35.9805H18.2486V36.9805H15.2103V35.9805ZM21.2869 35.9805H24.3252V36.9805H21.2869V35.9805ZM27.3635 35.9805H30.4018V36.9805H27.3635V35.9805ZM33.4401 35.9805H36.4784V36.9805H33.4401V35.9805ZM39.5167 35.9805H42.555V36.9805H39.5167V35.9805ZM45.5933 35.9805H48.6316V36.9805H45.5933V35.9805ZM51.6699 35.9805H54.7082V36.9805H51.6699V35.9805ZM57.7465 35.9805H60.7849V36.9805H57.7465V35.9805ZM63.8232 35.9805H66.8615V36.9805H63.8232V35.9805ZM69.8998 35.9805H72.9381V36.9805H69.8998V35.9805ZM75.9764 35.9805H77.4955C77.8336 35.9805 78.1572 36.0478 78.4526 36.1704L78.0696 37.0941C77.8934 37.021 77.6998 36.9805 77.4955 36.9805H75.9764V35.9805ZM79.8056 37.5234C79.9281 37.8188 79.9955 38.1424 79.9955 38.4805V40.2131H78.9955V38.4805C78.9955 38.2762 78.9549 38.0826 78.8819 37.9064L79.8056 37.5234ZM8.15283 38.4805C8.15283 38.1424 8.22021 37.8188 8.34273 37.5234L9.26646 37.9064C9.1934 38.0826 9.15283 38.2762 9.15283 38.4805V40.2131H8.15283V38.4805ZM8.15283 45.4109V43.6783H9.15283V45.4109C9.15283 45.6153 9.1934 45.8088 9.26646 45.985L8.34273 46.3681C8.22021 46.0726 8.15283 45.749 8.15283 45.4109ZM79.9955 43.6783V45.4109C79.9955 45.749 79.9281 46.0726 79.8056 46.3681L78.8819 45.985C78.9549 45.8088 78.9955 45.6153 78.9955 45.4109V43.6783H79.9955ZM78.4526 47.7211C78.1572 47.8436 77.8336 47.9109 77.4955 47.9109H75.9764V46.9109H77.4955C77.6998 46.9109 77.8934 46.8704 78.0696 46.7973L78.4526 47.7211ZM10.6528 47.9109C10.3148 47.9109 9.99119 47.8436 9.69573 47.7211L10.0788 46.7973C10.255 46.8704 10.4485 46.9109 10.6528 46.9109H12.172V47.9109H10.6528ZM18.2486 47.9109H15.2103V46.9109H18.2486V47.9109ZM24.3252 47.9109H21.2869V46.9109H24.3252V47.9109ZM30.4018 47.9109H27.3635V46.9109H30.4018V47.9109ZM36.4784 47.9109H33.4401V46.9109H36.4784V47.9109ZM42.555 47.9109H39.5167V46.9109H42.555V47.9109ZM48.6316 47.9109H45.5933V46.9109H48.6316V47.9109ZM54.7082 47.9109H51.6699V46.9109H54.7082V47.9109ZM60.7848 47.9109H57.7465V46.9109H60.7848V47.9109ZM66.8615 47.9109H63.8231V46.9109H66.8615V47.9109ZM72.9381 47.9109H69.8998V46.9109H72.9381V47.9109Z" fill="#2F4CE5"/>
<path d="M102 12.9986C102 11.9084 101.091 11 100 11C98.9091 11 98 11.9084 98 12.9986C98 14.0887 98.9091 14.9971 100 14.9971C101.091 15.0577 102 14.1493 102 12.9986Z" fill="white"/>
<path fill-rule="evenodd" clip-rule="evenodd" d="M97.5 12.9986C97.5 11.632 98.6333 10.5 100 10.5C101.367 10.5 102.5 11.632 102.5 12.9986C102.5 14.4048 101.383 15.5666 99.9862 15.4971C98.6256 15.4895 97.5 14.3606 97.5 12.9986ZM100 11.5C99.1849 11.5 98.5 12.1849 98.5 12.9986C98.5 13.8122 99.1849 14.4971 100 14.4971H100.014L100.028 14.4979C100.806 14.5411 101.5 13.8891 101.5 12.9986C101.5 12.1849 100.815 11.5 100 11.5Z" fill="#2F4CE5"/>
<path d="M102 72.9986C102 71.9084 101.091 71 100 71C98.9091 71 98 71.9084 98 72.9986C98 74.0887 98.9091 74.9971 100 74.9971C101.091 75.0577 102 74.1493 102 72.9986Z" fill="white"/>
<path fill-rule="evenodd" clip-rule="evenodd" d="M97.5 72.9986C97.5 71.632 98.6333 70.5 100 70.5C101.367 70.5 102.5 71.632 102.5 72.9986C102.5 74.4048 101.383 75.5666 99.9862 75.4971C98.6256 75.4895 97.5 74.3606 97.5 72.9986ZM100 71.5C99.1849 71.5 98.5 72.1849 98.5 72.9986C98.5 73.8122 99.1849 74.4971 100 74.4971H100.014L100.028 74.4979C100.806 74.5411 101.5 73.8891 101.5 72.9986C101.5 72.1849 100.815 71.5 100 71.5Z" fill="#2F4CE5"/>
<path d="M101.083 41.9986C101.083 40.9084 100.174 40 99.0829 40C97.992 40 97.0829 40.9084 97.0829 41.9986C97.0829 43.0887 97.992 43.9971 99.0829 43.9971C100.174 44.0577 101.083 43.1493 101.083 41.9986Z" fill="white"/>
<path fill-rule="evenodd" clip-rule="evenodd" d="M96.5829 41.9986C96.5829 40.632 97.7162 39.5 99.0829 39.5C100.45 39.5 101.583 40.632 101.583 41.9986C101.583 43.4048 100.466 44.5666 99.069 44.4971C97.7085 44.4895 96.5829 43.3606 96.5829 41.9986ZM99.0829 40.5C98.2678 40.5 97.5829 41.1849 97.5829 41.9986C97.5829 42.8122 98.2678 43.4971 99.0829 43.4971H99.0968L99.1106 43.4979C99.8888 43.5411 100.583 42.8891 100.583 41.9986C100.583 41.1849 99.898 40.5 99.0829 40.5Z" fill="#2F4CE5"/>
<path d="M92 12.9986C92 11.9084 91.0909 11 90 11C88.9091 11 88 11.9084 88 12.9986C88 14.0887 88.9091 14.9971 90 14.9971C91.0909 15.0577 92 14.1493 92 12.9986Z" fill="white"/>
<path fill-rule="evenodd" clip-rule="evenodd" d="M87.5 12.9986C87.5 11.632 88.6333 10.5 90 10.5C91.3667 10.5 92.5 11.632 92.5 12.9986C92.5 14.4048 91.3834 15.5666 89.9862 15.4971C88.6256 15.4895 87.5 14.3606 87.5 12.9986ZM90 11.5C89.1849 11.5 88.5 12.1849 88.5 12.9986C88.5 13.8122 89.1849 14.4971 90 14.4971H90.0139L90.0277 14.4979C90.8059 14.5411 91.5 13.8891 91.5 12.9986C91.5 12.1849 90.8151 11.5 90 11.5Z" fill="#2F4CE5"/>
<path d="M92 72.9986C92 71.9084 91.0909 71 90 71C88.9091 71 88 71.9084 88 72.9986C88 74.0887 88.9091 74.9971 90 74.9971C91.0909 75.0577 92 74.1493 92 72.9986Z" fill="white"/>
<path fill-rule="evenodd" clip-rule="evenodd" d="M87.5 72.9986C87.5 71.632 88.6333 70.5 90 70.5C91.3667 70.5 92.5 71.632 92.5 72.9986C92.5 74.4048 91.3834 75.5666 89.9862 75.4971C88.6256 75.4895 87.5 74.3606 87.5 72.9986ZM90 71.5C89.1849 71.5 88.5 72.1849 88.5 72.9986C88.5 73.8122 89.1849 74.4971 90 74.4971H90.0139L90.0277 74.4979C90.8059 74.5411 91.5 73.8891 91.5 72.9986C91.5 72.1849 90.8151 71.5 90 71.5Z" fill="#2F4CE5"/>
<path d="M92 41.9986C92 40.9084 91.0909 40 90 40C88.9091 40 88 40.9084 88 41.9986C88 43.0887 88.9091 43.9971 90 43.9971C91.0909 44.0577 92 43.1493 92 41.9986Z" fill="white"/>
<path fill-rule="evenodd" clip-rule="evenodd" d="M87.5 41.9986C87.5 40.632 88.6333 39.5 90 39.5C91.3667 39.5 92.5 40.632 92.5 41.9986C92.5 43.4048 91.3834 44.5666 89.9862 44.4971C88.6256 44.4895 87.5 43.3606 87.5 41.9986ZM90 40.5C89.1849 40.5 88.5 41.1849 88.5 41.9986C88.5 42.8122 89.1849 43.4971 90 43.4971H90.0139L90.0277 43.4979C90.8059 43.5411 91.5 42.8891 91.5 41.9986C91.5 41.1849 90.8151 40.5 90 40.5Z" fill="#2F4CE5"/>
<path d="M73 15C74.1046 15 75 14.1046 75 13C75 11.8954 74.1046 11 73 11C71.8954 11 71 11.8954 71 13C71 14.1046 71.8954 15 73 15Z" fill="#E5EBFD"/>
<path fill-rule="evenodd" clip-rule="evenodd" d="M73 11.5C72.1716 11.5 71.5 12.1716 71.5 13C71.5 13.8284 72.1716 14.5 73 14.5C73.8284 14.5 74.5 13.8284 74.5 13C74.5 12.1716 73.8284 11.5 73 11.5ZM70.5 13C70.5 11.6193 71.6193 10.5 73 10.5C74.3807 10.5 75.5 11.6193 75.5 13C75.5 14.3807 74.3807 15.5 73 15.5C71.6193 15.5 70.5 14.3807 70.5 13Z" fill="#2F4CE5"/>
<path d="M73 75C74.1046 75 75 74.1046 75 73C75 71.8954 74.1046 71 73 71C71.8954 71 71 71.8954 71 73C71 74.1046 71.8954 75 73 75Z" fill="#E5EBFD"/>
<path fill-rule="evenodd" clip-rule="evenodd" d="M73 71.5C72.1716 71.5 71.5 72.1716 71.5 73C71.5 73.8284 72.1716 74.5 73 74.5C73.8284 74.5 74.5 73.8284 74.5 73C74.5 72.1716 73.8284 71.5 73 71.5ZM70.5 73C70.5 71.6193 71.6193 70.5 73 70.5C74.3807 70.5 75.5 71.6193 75.5 73C75.5 74.3807 74.3807 75.5 73 75.5C71.6193 75.5 70.5 74.3807 70.5 73Z" fill="#2F4CE5"/>
<path d="M73 44C74.1046 44 75 43.1046 75 42C75 40.8954 74.1046 40 73 40C71.8954 40 71 40.8954 71 42C71 43.1046 71.8954 44 73 44Z" fill="#E5EBFD"/>
<path fill-rule="evenodd" clip-rule="evenodd" d="M73 40.5C72.1716 40.5 71.5 41.1716 71.5 42C71.5 42.8284 72.1716 43.5 73 43.5C73.8284 43.5 74.5 42.8284 74.5 42C74.5 41.1716 73.8284 40.5 73 40.5ZM70.5 42C70.5 40.6193 71.6193 39.5 73 39.5C74.3807 39.5 75.5 40.6193 75.5 42C75.5 43.3807 74.3807 44.5 73 44.5C71.6193 44.5 70.5 43.3807 70.5 42Z" fill="#2F4CE5"/>
<path d="M102.507 23.4161H7.58472V31.0593H102.507V23.4161Z" fill="#2F4CE5"/>
<path fill-rule="evenodd" clip-rule="evenodd" d="M7.31152 23.143H102.78V31.3324H7.31152V23.143ZM7.85777 23.6892V30.7861H102.234V23.6892H7.85777Z" fill="#2F4CE5"/>
<path d="M102.507 53.3314H7.58472V60.9745H102.507V53.3314Z" fill="#2F4CE5"/>
<path fill-rule="evenodd" clip-rule="evenodd" d="M7.31152 53.0583H102.78V61.2477H7.31152V53.0583ZM7.85777 53.6045V60.7014H102.234V53.6045H7.85777Z" fill="#2F4CE5"/>
</svg>
