<svg width="143" height="87" viewBox="0 0 143 87" fill="none" xmlns="http://www.w3.org/2000/svg">
<path d="M7.19568 5.7302C7.19568 2.56553 9.76115 6.10352e-05 12.9258 6.10352e-05H130.394C133.558 6.10352e-05 136.124 2.56553 136.124 5.7302V80.795C136.124 83.9597 133.558 86.5252 130.394 86.5252H12.9258C9.76116 86.5252 7.19568 83.9597 7.19568 80.795V5.7302Z" fill="#E5EBFD"/>
<path fill-rule="evenodd" clip-rule="evenodd" d="M130.394 1.00006H12.9258C10.3134 1.00006 8.19568 3.11782 8.19568 5.7302V80.795C8.19568 83.4074 10.3134 85.5252 12.9258 85.5252H130.394C133.006 85.5252 135.124 83.4074 135.124 80.795V5.7302C135.124 3.11782 133.006 1.00006 130.394 1.00006ZM12.9258 6.10352e-05C9.76115 6.10352e-05 7.19568 2.56553 7.19568 5.7302V80.795C7.19568 83.9597 9.76116 86.5252 12.9258 86.5252H130.394C133.558 86.5252 136.124 83.9597 136.124 80.795V5.7302C136.124 2.56553 133.558 6.10352e-05 130.394 6.10352e-05H12.9258Z" fill="#2F4CE5"/>
<path d="M7.19568 9.74127H136.124V10.7413H7.19568V9.74127Z" fill="#2F4CE5"/>
<path d="M14.6448 5.15726C14.6448 4.52433 15.1579 4.01123 15.7908 4.01123H16.9368C17.5698 4.01123 18.0829 4.52432 18.0829 5.15726V6.30328C18.0829 6.93622 17.5698 7.44931 16.9368 7.44931H15.7908C15.1579 7.44931 14.6448 6.93622 14.6448 6.30329V5.15726Z" fill="#2F4CE5"/>
<path d="M20.9481 5.15726C20.9481 4.52433 21.4612 4.01123 22.0941 4.01123H23.2401C23.873 4.01123 24.3861 4.52432 24.3861 5.15726V6.30328C24.3861 6.93622 23.873 7.44931 23.2401 7.44931H22.0941C21.4612 7.44931 20.9481 6.93622 20.9481 6.30329V5.15726Z" fill="#2F4CE5"/>
<path d="M27.2513 5.15726C27.2513 4.52433 27.7644 4.01123 28.3974 4.01123H29.5434C30.1763 4.01123 30.6894 4.52432 30.6894 5.15726V6.30328C30.6894 6.93622 30.1763 7.44931 29.5434 7.44931H28.3974C27.7644 7.44931 27.2513 6.93622 27.2513 6.30329V5.15726Z" fill="#2F4CE5"/>
<path d="M18.0831 25.7857C18.0831 22.9375 20.392 20.6285 23.2402 20.6285H71.9464C74.7946 20.6285 77.1035 22.9375 77.1035 25.7857V52.1443C77.1035 54.9925 74.7946 57.3014 71.9464 57.3014H23.2402C20.392 57.3014 18.0831 54.9925 18.0831 52.1443V25.7857Z" fill="white"/>
<path fill-rule="evenodd" clip-rule="evenodd" d="M21.2661 56.9101L21.6492 55.9864C22.1379 56.1891 22.6747 56.3014 23.2402 56.3014H24.7623V57.3014H23.2402C22.5409 57.3014 21.8742 57.1623 21.2661 56.9101ZM70.4243 57.3014V56.3014H71.9464C72.5119 56.3014 73.0486 56.1891 73.5374 55.9864L73.9205 56.9101C73.3124 57.1623 72.6456 57.3014 71.9464 57.3014H70.4243ZM77.1035 27.4331H76.1035V25.7857C76.1035 25.2202 75.9911 24.6834 75.7884 24.1946L76.7122 23.8116C76.9643 24.4196 77.1035 25.0864 77.1035 25.7857V27.4331ZM24.7623 20.6285H23.2402C22.5409 20.6285 21.8742 20.7677 21.2661 21.0199L21.6492 21.9436C22.1379 21.7409 22.6747 21.6285 23.2402 21.6285H24.7623V20.6285ZM18.0831 50.4969H19.0831V52.1443C19.0831 52.7098 19.1954 53.2466 19.3981 53.7353L18.4744 54.1184C18.2222 53.5103 18.0831 52.8436 18.0831 52.1443V50.4969ZM18.0831 47.2021H19.0831V43.9072H18.0831V47.2021ZM18.0831 40.6124H19.0831V37.3176H18.0831V40.6124ZM18.0831 34.0227H19.0831V30.7279H18.0831V34.0227ZM18.0831 27.4331H19.0831V25.7857C19.0831 25.2202 19.1954 24.6834 19.3981 24.1946L18.4744 23.8116C18.2222 24.4197 18.0831 25.0864 18.0831 25.7857V27.4331ZM27.8064 20.6285V21.6285H30.8505V20.6285H27.8064ZM33.8947 20.6285V21.6285H36.9388V20.6285H33.8947ZM39.9829 20.6285V21.6285H43.0271V20.6285H39.9829ZM46.0712 20.6285V21.6285H49.1154V20.6285H46.0712ZM52.1595 20.6285V21.6285H55.2036V20.6285H52.1595ZM58.2478 20.6285V21.6285H61.2919V20.6285H58.2478ZM64.336 20.6285V21.6285H67.3802V20.6285H64.336ZM70.4243 20.6285V21.6285H71.9464C72.5119 21.6285 73.0486 21.7409 73.5374 21.9436L73.9205 21.0199C73.3124 20.7677 72.6456 20.6285 71.9464 20.6285H70.4243ZM77.1035 30.7279H76.1035V34.0227H77.1035V30.7279ZM77.1035 37.3176H76.1035V40.6124H77.1035V37.3176ZM77.1035 43.9072H76.1035V47.2021H77.1035V43.9072ZM77.1035 50.4969H76.1035V52.1443C76.1035 52.7098 75.9911 53.2466 75.7884 53.7353L76.7122 54.1184C76.9643 53.5103 77.1035 52.8436 77.1035 52.1443V50.4969ZM67.3802 57.3014V56.3014H64.336V57.3014H67.3802ZM61.2919 57.3014V56.3014H58.2478V57.3014H61.2919ZM55.2036 57.3014V56.3014H52.1595V57.3014H55.2036ZM49.1154 57.3014V56.3014H46.0712V57.3014H49.1154ZM43.0271 57.3014V56.3014H39.9829V57.3014H43.0271ZM36.9388 57.3014V56.3014H33.8947V57.3014H36.9388ZM30.8505 57.3014V56.3014H27.8064V57.3014H30.8505Z" fill="#2F4CE5"/>
<path d="M85.6986 55.5824C85.6986 52.7342 88.0075 50.4252 90.8557 50.4252H120.079C122.928 50.4252 125.237 52.7342 125.237 55.5824V71.6267C125.237 74.4749 122.928 76.7839 120.079 76.7839H90.8557C88.0075 76.7839 85.6986 74.4749 85.6986 71.6267V55.5824Z" fill="white"/>
<path fill-rule="evenodd" clip-rule="evenodd" d="M88.8816 76.3925L89.2647 75.4688C89.7535 75.6715 90.2902 75.7839 90.8557 75.7839H92.3169V76.7839H90.8557C90.1565 76.7839 89.4897 76.6447 88.8816 76.3925ZM118.618 76.7839V75.7839H120.079C120.645 75.7839 121.182 75.6715 121.67 75.4688L122.054 76.3925C121.445 76.6447 120.779 76.7839 120.079 76.7839H118.618ZM125.237 56.9194H124.237V55.5824C124.237 55.0168 124.124 54.4801 123.922 53.9913L124.845 53.6083C125.097 54.2163 125.237 54.8831 125.237 55.5824V56.9194ZM92.3169 50.4252H90.8557C90.1565 50.4252 89.4897 50.5644 88.8816 50.8166L89.2647 51.7403C89.7535 51.5376 90.2902 51.4252 90.8557 51.4252H92.3169V50.4252ZM85.6986 70.2897H86.6986V71.6267C86.6986 72.1923 86.811 72.729 87.0137 73.2178L86.0899 73.6008C85.8378 72.9928 85.6986 72.326 85.6986 71.6267V70.2897ZM85.6986 67.6157H86.6986V64.9416H85.6986V67.6157ZM85.6986 62.2675H86.6986V59.5935H85.6986V62.2675ZM85.6986 56.9194H86.6986V55.5824C86.6986 55.0168 86.811 54.4801 87.0137 53.9913L86.0899 53.6083C85.8378 54.2163 85.6986 54.8831 85.6986 55.5824V56.9194ZM95.2393 50.4252V51.4252H98.1617V50.4252H95.2393ZM101.084 50.4252V51.4252H104.006V50.4252H101.084ZM106.929 50.4252V51.4252H109.851V50.4252H106.929ZM112.774 50.4252V51.4252H115.696V50.4252H112.774ZM118.618 50.4252V51.4252H120.079C120.645 51.4252 121.182 51.5376 121.67 51.7403L122.054 50.8166C121.445 50.5644 120.779 50.4252 120.079 50.4252H118.618ZM125.237 59.5935H124.237V62.2675H125.237V59.5935ZM125.237 64.9416H124.237V67.6157H125.237V64.9416ZM125.237 70.2897H124.237V71.6267C124.237 72.1923 124.124 72.729 123.922 73.2178L124.845 73.6008C125.097 72.9928 125.237 72.326 125.237 71.6267V70.2897ZM115.696 76.7839V75.7839H112.774V76.7839H115.696ZM109.851 76.7839V75.7839H106.929V76.7839H109.851ZM104.006 76.7839V75.7839H101.084V76.7839H104.006ZM98.1617 76.7839V75.7839H95.2393V76.7839H98.1617Z" fill="#2F4CE5"/>
<path d="M0.8927 35.527C0.8927 32.6788 3.20162 30.3699 6.04983 30.3699H54.756C57.6042 30.3699 59.9131 32.6788 59.9131 35.527V61.8856C59.9131 64.7338 57.6042 67.0428 54.756 67.0428H6.04983C3.20163 67.0428 0.8927 64.7338 0.8927 61.8856V35.527Z" fill="#2F4CE5"/>
<mask id="mask0_183_366" style="mask-type:alpha" maskUnits="userSpaceOnUse" x="0" y="30" width="60" height="38">
<path d="M0.8927 35.5269C0.8927 32.6787 3.20162 30.3698 6.04983 30.3698H54.756C57.6042 30.3698 59.9131 32.6787 59.9131 35.5269V61.8855C59.9131 64.7337 57.6042 67.0426 54.756 67.0426H6.04983C3.20163 67.0426 0.8927 64.7337 0.8927 61.8855V35.5269Z" fill="#2F4CE5"/>
</mask>
<g mask="url(#mask0_183_366)">
<path fill-rule="evenodd" clip-rule="evenodd" d="M53.3572 37.7955L64.1888 60.6295L69.7613 76.1739L69.3952 76.2095C63.9978 76.735 55.7009 77.4801 48.3512 78.008C44.6767 78.2719 41.2366 78.4817 38.5132 78.5824C37.1517 78.6328 35.9667 78.656 35.0199 78.645C34.0807 78.634 33.3535 78.5893 32.9211 78.4966C31.3327 78.1562 24.952 77.3225 17.5965 76.4165C10.2509 75.5117 1.95735 74.5377 -3.43804 73.917L-3.66553 73.8908L-3.69014 73.6631C-3.88143 71.8937 -4.13973 69.1819 -4.29288 66.796C-4.36942 65.6036 -4.41998 64.4885 -4.42239 63.6116C-4.4236 63.1737 -4.41282 62.7902 -4.38642 62.484C-4.36131 62.1929 -4.31933 61.9269 -4.23457 61.7574C-3.77017 60.8286 -0.591218 55.4288 0.932336 52.8578L0.945378 52.8358L10.3585 41.9518L25.5169 61.4002L32.9287 50.5674L40.9402 57.7205L53.3572 37.7955ZM53.2889 38.9885L41.0664 58.6014L33.0335 51.4291L25.547 62.3709L10.3355 42.8544L1.41226 53.1719C-0.125088 55.7664 -3.27091 61.1114 -3.72205 62.0137C-3.75189 62.0734 -3.78989 62.236 -3.81552 62.5332C-3.83985 62.8153 -3.85057 63.1799 -3.84938 63.6101C-3.84702 64.4696 -3.7973 65.5713 -3.72104 66.7593C-3.57501 69.0343 -3.33265 71.6104 -3.14487 73.3739C2.25523 73.9957 10.4216 74.9554 17.6665 75.8477C25.004 76.7515 31.4206 77.5891 33.0411 77.9363C33.4109 78.0155 34.0851 78.061 35.0266 78.072C35.9603 78.0829 37.135 78.06 38.492 78.0098C41.2057 77.9094 44.6382 77.7002 48.3102 77.4365C55.4894 76.9208 63.5751 76.1975 68.9736 75.6748L63.6589 60.8495L53.2889 38.9885Z" fill="white"/>
</g>
<path fill-rule="evenodd" clip-rule="evenodd" d="M125.237 20.6285H85.6986V19.6285H125.237V20.6285Z" fill="#2F4CE5"/>
<path fill-rule="evenodd" clip-rule="evenodd" d="M125.237 29.2239H85.6986V28.2239H125.237V29.2239Z" fill="#2F4CE5"/>
<path fill-rule="evenodd" clip-rule="evenodd" d="M125.237 37.819H85.6986V36.819H125.237V37.819Z" fill="#2F4CE5"/>
<path d="M103.462 60.1665C103.462 57.3183 105.771 55.0094 108.619 55.0094H137.843C140.691 55.0094 143 57.3183 143 60.1665V76.2109C143 79.0591 140.691 81.368 137.843 81.368H108.619C105.771 81.368 103.462 79.0591 103.462 76.2109V60.1665Z" fill="#2F4CE5"/>
<path d="M121.018 74.8745V62.4032H125.448V60.826H114.836V62.4032H119.266V74.8745H121.018Z" fill="white"/>
<path d="M127.58 62.3059V64.7495H126.071V66.1417H127.58V72.2459C127.58 74.1931 128.3 74.9524 130.16 74.9524C130.559 74.9524 131.026 74.9232 131.231 74.8745V73.4531C131.114 73.4726 130.725 73.5018 130.53 73.5018C129.663 73.5018 129.274 73.0832 129.274 72.1583V66.1417H131.241V64.7495H129.274V62.3059H127.58Z" fill="white"/>
<path fill-rule="evenodd" clip-rule="evenodd" d="M77.1037 77.9301H16.9372V76.9301H77.1037V77.9301Z" fill="#2F4CE5"/>
<path d="M16.9372 71.6268C16.9372 71.3104 17.1937 71.0538 17.5102 71.0538H19.8023C20.1187 71.0538 20.3753 71.3104 20.3753 71.6268V73.9189C20.3753 74.2354 20.1187 74.4919 19.8023 74.4919H17.5102C17.1937 74.4919 16.9372 74.2354 16.9372 73.9189V71.6268Z" fill="#2F4CE5"/>
<path fill-rule="evenodd" clip-rule="evenodd" d="M19.8023 71.6268H17.5102V73.9189H19.8023V71.6268ZM17.5102 71.0538C17.1937 71.0538 16.9372 71.3104 16.9372 71.6268V73.9189C16.9372 74.2354 17.1937 74.4919 17.5102 74.4919H19.8023C20.1187 74.4919 20.3753 74.2354 20.3753 73.9189V71.6268C20.3753 71.3104 20.1187 71.0538 19.8023 71.0538H17.5102Z" fill="#2F4CE5"/>
<path d="M73.6654 71.6269C73.6654 71.3104 73.922 71.0539 74.2384 71.0539H76.5305C76.8469 71.0539 77.1035 71.3104 77.1035 71.6269V73.919C77.1035 74.2354 76.8469 74.492 76.5305 74.492H74.2384C73.922 74.492 73.6654 74.2354 73.6654 73.919V71.6269Z" fill="#2F4CE5"/>
<path fill-rule="evenodd" clip-rule="evenodd" d="M76.5305 71.6269H74.2384V73.919H76.5305V71.6269ZM74.2384 71.0539C73.922 71.0539 73.6654 71.3104 73.6654 71.6269V73.919C73.6654 74.2354 73.922 74.492 74.2384 74.492H76.5305C76.8469 74.492 77.1035 74.2354 77.1035 73.919V71.6269C77.1035 71.3104 76.8469 71.0539 76.5305 71.0539H74.2384Z" fill="#2F4CE5"/>
<path d="M44.9999 71.6269C44.9999 71.3104 45.2564 71.0539 45.5729 71.0539H47.8649C48.1814 71.0539 48.438 71.3104 48.438 71.6269V73.919C48.438 74.2354 48.1814 74.492 47.8649 74.492H45.5729C45.2564 74.492 44.9999 74.2354 44.9999 73.919V71.6269Z" fill="#2F4CE5"/>
<path fill-rule="evenodd" clip-rule="evenodd" d="M47.8649 71.6269H45.5729V73.919H47.8649V71.6269ZM45.5729 71.0539C45.2564 71.0539 44.9999 71.3104 44.9999 71.6269V73.919C44.9999 74.2354 45.2564 74.492 45.5729 74.492H47.8649C48.1814 74.492 48.438 74.2354 48.438 73.919V71.6269C48.438 71.3104 48.1814 71.0539 47.8649 71.0539H45.5729Z" fill="#2F4CE5"/>
</svg>
