<?xml version="1.0" standalone="no"?>
<!DOCTYPE svg PUBLIC "-//W3C//DTD SVG 20010904//EN"
 "http://www.w3.org/TR/2001/REC-SVG-20010904/DTD/svg10.dtd">
<svg version="1.0" xmlns="http://www.w3.org/2000/svg"
 width="1080.000000pt" height="1080.000000pt" viewBox="0 0 1080.000000 1080.000000"
 preserveAspectRatio="xMidYMid meet">
<metadata>
Created by potrace 1.14, written by Peter Selinger 2001-2017
</metadata>
<g transform="translate(0.000000,1080.000000) scale(0.100000,-0.100000)"
fill="#000000" stroke="none">
<path d="M4776 9392 c-3 -3 -18 -6 -33 -7 l-28 -1 -2 -682 c-1 -520 1 -682 10
-683 7 0 21 -3 32 -5 26 -6 200 -7 246 -1 20 2 45 10 57 16 11 6 28 11 38 11
18 0 156 63 177 80 46 39 61 50 69 50 5 0 6 5 3 10 -3 6 -1 10 5 10 17 0 110
102 110 120 0 6 5 10 12 10 6 0 8 3 5 6 -3 4 5 25 18 48 34 58 72 179 74 234
1 32 17 27 17 -5 1 -69 53 -233 75 -233 4 0 10 -12 13 -26 4 -15 12 -32 19
-40 26 -29 37 -43 37 -48 0 -19 144 -138 188 -156 17 -7 32 -16 32 -21 0 -5 9
-9 20 -9 11 0 20 -4 20 -10 0 -5 11 -10 24 -10 14 0 27 -4 30 -8 3 -5 18 -9
33 -10 l29 -1 -1 672 c0 666 0 672 -20 669 -106 -17 -275 -123 -348 -219 -22
-29 -44 -53 -49 -53 -5 0 -7 -4 -4 -9 4 -5 3 -11 -2 -13 -10 -4 -69 -135 -76
-168 -19 -91 -35 -132 -37 -97 -2 18 -5 35 -8 40 -2 2 -5 14 -15 62 -1 6 -5
16 -9 23 -5 6 -5 17 -2 22 3 6 -1 13 -10 16 -13 5 -13 9 -3 22 8 10 9 13 1 9
-7 -4 -20 11 -34 40 -13 27 -29 54 -36 61 -7 8 -11 18 -7 23 3 5 2 9 -3 8 -21
-4 -33 2 -33 16 0 8 -4 15 -10 15 -5 0 -10 7 -10 15 0 8 -4 15 -8 15 -5 0 -20
9 -33 21 -13 11 -34 29 -46 39 -12 11 -42 29 -65 41 -24 12 -45 25 -48 29 -5
7 -141 52 -175 57 -37 7 -234 11 -239 5z m811 -617 c0 -8 -4 -15 -9 -15 -4 0
-8 7 -8 15 0 8 4 15 8 15 5 0 9 -7 9 -15z"/>
<path d="M5656 9198 c3 -5 10 -6 15 -3 13 9 11 12 -6 12 -8 0 -12 -4 -9 -9z"/>
<path d="M5610 9180 c0 -5 5 -10 11 -10 5 0 7 5 4 10 -3 6 -8 10 -11 10 -2 0
-4 -4 -4 -10z"/>
<path d="M5615 9151 c-3 -5 -2 -12 3 -15 5 -3 9 1 9 9 0 17 -3 19 -12 6z"/>
<path d="M5536 9142 c-3 -4 4 -9 15 -9 23 -2 25 3 4 10 -8 4 -16 3 -19 -1z"/>
<path d="M5496 9102 c-3 -5 1 -9 9 -9 8 0 12 4 9 9 -3 4 -7 8 -9 8 -2 0 -6 -4
-9 -8z"/>
<path d="M5610 9086 c0 -2 7 -7 16 -10 8 -3 12 -2 9 4 -6 10 -25 14 -25 6z"/>
<path d="M2390 7442 c1 -582 -1 -562 65 -614 23 -18 42 -23 90 -23 56 0 64 3
98 35 21 19 40 46 43 60 3 14 6 259 7 545 l1 520 -152 2 -152 3 0 -528z"/>
<path d="M7168 7963 c-8 -17 -2 -1083 7 -1090 4 -4 5 -3 1 4 -3 6 -2 14 4 18
13 8 14 1075 1 1075 -6 0 -11 -3 -13 -7z"/>
<path d="M9282 7952 c-10 -20 -9 -73 1 -89 4 -6 4 -14 -1 -17 -9 -6 -8 -59 3
-75 3 -6 3 -11 -2 -11 -4 0 -8 -20 -8 -45 0 -25 4 -45 8 -45 4 0 4 -8 0 -17
-10 -22 -9 -105 1 -121 4 -7 4 -12 -1 -12 -4 0 -8 -20 -8 -45 0 -25 4 -45 8
-45 4 0 4 -8 0 -17 -10 -22 -9 -105 1 -121 4 -7 4 -17 1 -23 -11 -16 -12 -69
-2 -69 4 0 5 -5 2 -11 -11 -16 -12 -69 -2 -69 4 0 5 -5 2 -11 -11 -16 -12 -69
-3 -69 5 0 5 -8 1 -17 -11 -23 -9 -57 6 -112 15 -52 64 -101 103 -101 15 0 30
-5 33 -10 4 -7 13 -7 26 0 10 6 19 8 19 4 0 -11 75 37 84 55 9 15 17 1070 8
1098 -2 7 -45 11 -137 12 -118 0 -136 -2 -143 -17z"/>
<path d="M4012 7158 c-1 -490 2 -655 11 -660 9 -6 9 -8 0 -8 -9 0 -13 -20 -13
-69 l0 -68 445 0 c245 0 442 4 438 7 -11 9 -133 52 -158 56 -11 2 -47 11 -80
20 -33 9 -73 18 -90 21 -16 2 -46 6 -65 9 -19 2 -48 5 -64 5 -16 0 -37 4 -46
9 -11 6 -21 5 -28 -2 -9 -9 -12 -8 -12 6 0 14 8 17 43 16 23 -1 44 -1 47 0 3
2 19 4 35 5 69 5 161 16 178 21 11 3 29 7 40 9 12 2 33 6 47 9 37 9 84 17 95
18 6 0 18 4 28 10 17 9 42 16 77 22 8 2 26 8 40 14 14 5 57 22 95 38 39 15 81
35 95 44 14 9 40 23 58 31 17 8 32 16 32 19 0 3 17 14 38 25 20 11 39 22 42
25 24 24 99 78 104 75 3 -3 4 -2 2 1 -3 4 11 29 30 58 18 28 34 58 34 68 0 9
5 20 10 23 6 4 10 12 9 18 -3 29 2 80 7 74 4 -3 8 -27 10 -52 1 -26 7 -52 12
-58 6 -7 12 -21 14 -31 1 -11 15 -32 31 -46 15 -15 27 -32 27 -39 0 -6 4 -11
9 -11 4 0 19 -10 33 -22 38 -35 84 -73 89 -75 2 -1 13 -5 24 -9 11 -4 25 -13
32 -18 28 -25 43 -36 45 -36 18 -1 48 -14 48 -22 0 -5 4 -7 9 -3 5 3 16 -2 25
-10 8 -9 17 -15 18 -14 2 2 19 -3 38 -11 42 -15 47 -17 61 -19 5 0 7 -6 3 -13
-4 -7 -3 -8 5 -4 17 11 53 -3 44 -17 -4 -8 -1 -7 9 1 11 9 18 10 23 2 3 -5 16
-10 28 -10 12 0 41 -7 65 -15 43 -15 102 -28 135 -29 9 0 17 -3 17 -6 0 -3 12
-7 28 -8 15 -1 38 -4 52 -7 14 -3 45 -8 70 -11 25 -2 63 -7 85 -10 22 -3 57
-5 77 -4 20 0 39 -4 43 -10 3 -6 -4 -10 -17 -9 -22 0 -54 -3 -163 -17 -27 -4
-60 -8 -72 -9 -11 -2 -30 -6 -41 -9 -11 -4 -31 -9 -44 -11 -40 -7 -218 -69
-218 -75 0 -10 580 -8 586 2 3 5 5 331 6 726 l0 717 -316 2 -315 2 -65 -34
c-36 -19 -66 -31 -66 -27 0 4 -4 2 -8 -4 -4 -6 -25 -21 -48 -32 -71 -36 -194
-144 -254 -222 -14 -18 -33 -42 -42 -53 -10 -10 -20 -28 -23 -38 -4 -11 -10
-19 -14 -19 -7 0 -33 -45 -35 -60 -1 -3 -9 -22 -19 -43 -16 -34 -22 -51 -31
-94 -5 -28 -14 -21 -20 18 -9 53 -67 171 -121 243 -43 57 -137 157 -177 188
-62 47 -75 56 -95 62 -13 4 -23 12 -23 17 0 6 -4 7 -10 4 -5 -3 -10 -2 -10 2
0 5 -16 15 -35 22 -19 7 -35 17 -35 22 0 5 -3 8 -7 7 -5 -1 -28 8 -52 20 -44
22 -51 22 -497 22 l-452 0 0 -652z"/>
<path d="M1278 6800 c-23 -6 -23 -8 -23 -149 0 -78 2 -146 5 -151 3 -5 239 -8
524 -7 405 2 520 5 524 15 2 6 9 12 16 12 23 0 59 63 64 112 10 106 -54 170
-173 172 -33 1 -68 -2 -77 -7 -10 -4 -18 -4 -18 0 0 9 -93 9 -108 0 -5 -4 -12
-4 -15 0 -9 9 -331 8 -345 -1 -7 -4 -12 -4 -12 1 0 4 -43 8 -95 8 -52 0 -95
-4 -95 -8 0 -5 -5 -5 -11 -2 -13 9 -131 12 -161 5z"/>
<path d="M2910 6807 c-3 -3 -34 -8 -70 -11 -119 -11 -227 -52 -296 -114 -41
-36 -104 -129 -111 -164 -3 -15 -9 -28 -14 -28 -4 0 -7 -8 -7 -17 0 -10 -3
-31 -8 -48 -4 -16 -10 -261 -11 -542 l-4 -513 153 0 153 0 0 478 0 477 25 50
c32 66 72 98 141 110 19 4 203 7 409 7 l376 0 -1 150 c0 147 -1 151 -22 159
-14 5 -23 5 -23 -2 0 -6 -7 -6 -17 -1 -21 9 -155 8 -171 -2 -7 -4 -12 -4 -12
1 0 9 -93 9 -108 0 -5 -4 -12 -4 -15 0 -9 8 -331 8 -344 0 -6 -4 -13 -2 -15 4
-2 5 -6 8 -8 6z"/>
<path d="M7295 6795 c-36 -15 -85 -65 -90 -91 -2 -11 -4 -19 -5 -19 -1 0 -3
-11 -4 -25 -7 -64 39 -136 100 -157 21 -7 322 -11 915 -11 486 -1 886 -2 889
-3 3 -1 8 -1 12 0 4 0 26 -8 50 -18 70 -30 108 -86 113 -168 1 -22 6 -46 9
-52 4 -6 3 -11 -1 -11 -5 0 -8 -19 -6 -42 l2 -43 -177 2 -177 1 1 -293 c0
-290 0 -295 24 -347 14 -29 29 -56 35 -60 5 -4 7 -8 3 -8 -6 0 15 -51 83 -197
16 -33 36 -69 46 -79 17 -17 17 -17 -3 -12 -12 3 -28 2 -35 -3 -7 -4 -18 -5
-23 -1 -13 8 -68 10 -81 3 -5 -3 -19 -5 -29 -6 -24 0 -30 -55 -6 -56 80 -4
200 -3 200 3 0 4 10 4 23 0 38 -13 472 -7 471 6 -2 27 -5 31 -26 38 -13 4 -39
8 -58 9 -20 1 -46 5 -58 9 -14 5 -22 3 -22 -4 0 -7 -5 -8 -17 -2 -9 5 -29 6
-44 2 -15 -5 -30 -6 -33 -2 -9 9 -59 10 -77 1 -8 -4 -21 -4 -29 1 -8 5 -22 4
-32 -1 -14 -8 -18 -6 -18 9 0 11 7 25 15 32 8 7 15 20 15 29 0 9 6 23 13 30 6
6 12 15 12 19 0 4 9 26 20 49 l19 42 125 3 125 3 1 275 0 275 29 65 c16 36 33
69 38 75 4 5 8 17 8 27 0 10 5 18 10 18 6 0 10 -7 10 -16 0 -9 6 -28 14 -42 8
-15 25 -52 39 -82 13 -30 37 -81 51 -113 15 -32 36 -80 47 -105 11 -26 29 -65
39 -87 10 -22 21 -49 24 -59 4 -10 9 -17 11 -14 4 3 8 449 6 544 -1 20 -6 21
-116 22 -111 0 -115 -1 -116 -22 -1 -16 -2 -17 -6 -4 -4 16 -31 31 -49 27 -40
-7 -40 -4 -41 154 -2 162 -2 170 -21 205 -7 12 -10 22 -6 22 3 0 1 7 -6 15 -7
8 -9 15 -4 15 4 0 -2 9 -13 20 -12 11 -29 32 -38 48 -25 42 -156 126 -213 137
-15 3 -38 7 -52 11 -75 17 -168 23 -192 11 -10 -4 -18 -4 -18 0 0 7 -93 9
-110 2 -3 -1 -9 0 -15 1 -24 5 -93 3 -103 -4 -7 -4 -12 -4 -12 1 0 6 -171 9
-190 2 -3 -1 -9 0 -15 1 -24 5 -93 3 -103 -4 -7 -4 -12 -4 -12 1 0 6 -171 9
-190 2 -3 -1 -9 0 -15 1 -24 5 -93 3 -103 -4 -7 -4 -12 -4 -12 1 0 6 -171 9
-190 2 -3 -1 -9 0 -15 1 -24 5 -93 3 -103 -4 -7 -4 -12 -4 -12 1 0 10 -212 9
-228 -1 -7 -4 -12 -4 -12 1 0 9 -93 9 -108 -1 -6 -3 -13 -3 -16 2 -5 9 -75 7
-84 -3 -3 -2 -10 -1 -16 4 -7 6 -23 4 -41 -4z"/>
<path d="M7165 5913 c1 -426 3 -537 13 -541 11 -3 13 98 10 519 -2 326 -7 530
-13 541 -7 11 -10 -158 -10 -519z"/>
<path d="M929 6140 c-2 -29 -1 -57 1 -82 1 -19 4 -17 14 12 l13 35 13 -25 c8
-14 15 -29 16 -35 1 -5 16 -39 33 -74 17 -36 31 -70 31 -78 0 -7 5 -13 10 -13
5 0 9 -3 8 -7 -1 -5 5 -24 14 -43 38 -81 72 -155 73 -160 0 -3 15 -36 33 -73
18 -38 32 -70 32 -72 0 -2 16 -39 36 -82 19 -43 45 -98 56 -123 11 -25 25 -56
31 -70 6 -14 19 -37 29 -52 10 -14 18 -29 18 -32 0 -3 -63 -5 -140 -4 -78 0
-143 -2 -146 -5 -3 -3 -19 -1 -35 3 -16 5 -29 5 -29 0 0 -4 -11 -11 -25 -14
-19 -5 -55 -44 -43 -47 4 -1 867 -1 894 0 14 1 20 8 20 26 0 14 -5 26 -10 26
-6 1 -38 3 -71 4 -33 2 -60 4 -60 5 0 6 -75 5 -97 -1 -15 -4 -30 -4 -32 0 -3
4 -22 5 -43 4 -36 -3 -59 -3 -92 -1 -9 1 -6 7 7 17 11 9 32 41 45 71 14 30 35
78 47 105 13 28 24 52 25 55 2 3 6 15 10 28 4 12 11 22 16 22 5 0 6 7 3 15 -4
8 -1 15 5 15 6 0 11 4 11 10 0 5 11 34 25 64 14 30 25 60 25 65 0 6 5 11 10
11 6 0 10 7 10 16 0 9 7 28 15 42 8 15 24 50 36 77 12 28 42 93 67 145 39 82
45 105 47 166 l2 71 -463 0 c-331 0 -461 -3 -457 -11 3 -6 0 -5 -8 2 -19 17
-29 15 -30 -8z"/>
<path d="M5276 5323 c-1 -1 -24 -5 -52 -8 -83 -9 -122 -14 -171 -26 -27 -6
-57 -12 -68 -15 -37 -7 -188 -57 -214 -70 -14 -8 -33 -14 -42 -14 -9 0 -22 -7
-29 -15 -7 -8 -19 -15 -27 -15 -14 0 -198 -102 -238 -132 -282 -214 -440 -397
-566 -658 -65 -136 -64 -131 -94 -225 -24 -76 -29 -96 -41 -155 -3 -14 -7 -33
-10 -42 -26 -88 -39 -396 -22 -523 4 -27 10 -68 13 -90 8 -63 15 -95 37 -170
11 -38 21 -74 23 -80 1 -5 8 -23 14 -40 7 -16 14 -37 16 -46 11 -55 191 -378
216 -387 5 -2 9 -10 9 -18 0 -8 4 -14 8 -14 4 0 15 -13 24 -28 38 -64 325
-332 356 -332 6 0 12 -4 14 -9 4 -11 135 -91 148 -91 6 0 10 -5 10 -10 0 -6 3
-9 8 -8 4 1 39 -14 77 -33 84 -42 253 -102 320 -114 11 -2 21 -4 23 -5 6 -5
108 -22 152 -26 19 -1 35 -3 35 -4 0 -10 313 -14 370 -5 17 2 50 6 75 9 25 3
68 10 95 16 28 7 57 13 65 15 27 5 123 36 195 63 155 56 351 169 484 280 52
43 211 198 211 206 0 3 12 18 26 33 15 15 38 46 52 68 14 22 28 42 32 45 3 3
17 23 30 45 13 22 29 43 34 47 6 4 7 8 2 8 -5 0 -4 6 2 13 28 34 115 217 138
292 69 218 92 368 89 580 -3 157 -7 215 -20 271 -2 12 -7 39 -11 60 -3 21 -10
47 -15 57 -5 9 -7 17 -5 17 3 0 1 12 -5 28 -6 15 -13 38 -15 51 -9 44 -66 185
-113 276 -91 177 -225 353 -362 475 -104 94 -104 94 -121 105 -8 6 -49 33 -90
62 -41 28 -108 69 -149 90 -111 59 -315 136 -384 146 -11 1 -24 5 -30 9 -5 3
-30 9 -55 12 -25 3 -56 8 -70 11 -62 12 -375 27 -384 18z"/>
<path d="M9719 5154 c-14 -8 -34 -22 -44 -34 -21 -23 -31 -21 120 -23 l90 0 3
30 c3 26 -1 31 -24 36 -15 2 -39 1 -55 -3 -15 -5 -30 -5 -34 -2 -10 10 -29 9
-56 -4z"/>
<path d="M927 5120 c-4 -15 0 -20 14 -20 17 0 18 3 9 20 -6 11 -12 20 -14 20
-2 0 -6 -9 -9 -20z"/>
<path d="M703 4513 c-3 -7 -3 -20 0 -28 4 -8 3 -16 -1 -19 -4 -2 -6 -304 -4
-670 l2 -666 680 2 c388 2 681 -1 683 -6 2 -5 9 -2 17 6 13 12 15 110 14 684
-1 368 -2 678 -3 689 -1 20 -8 20 -692 20 -544 0 -693 -3 -696 -12z m701 -88
c-8 -19 32 -155 62 -215 15 -30 28 -59 28 -63 1 -4 8 -12 16 -17 8 -5 12 -10
8 -10 -11 0 18 -34 82 -98 69 -68 76 -73 125 -97 22 -11 42 -23 43 -28 2 -4 8
-5 13 -1 5 3 9 1 9 -5 0 -8 75 -36 87 -32 2 0 18 -6 38 -15 19 -8 37 -14 40
-14 82 2 101 -10 27 -17 -20 -2 -51 -8 -68 -14 -17 -5 -40 -11 -50 -13 -10 -3
-37 -12 -59 -22 -22 -10 -43 -17 -47 -16 -5 1 -8 -2 -8 -8 0 -5 -15 -16 -32
-25 -48 -22 -174 -132 -164 -142 2 -2 -8 -17 -22 -31 -31 -31 -99 -163 -106
-204 -2 -15 -8 -33 -12 -39 -4 -7 -8 -24 -9 -38 -7 -90 -6 -87 -14 -66 -5 11
-4 28 1 38 5 11 5 17 -2 17 -5 0 -10 11 -10 25 0 14 -4 25 -10 25 -5 0 -7 7
-4 15 4 8 1 22 -6 30 -7 8 -10 15 -6 15 7 0 -64 142 -92 183 -10 15 -22 24
-27 20 -4 -5 -5 -3 -2 3 6 11 -66 94 -82 94 -5 0 -11 7 -15 15 -3 8 -12 15
-21 15 -8 0 -15 5 -15 10 0 6 -6 10 -14 10 -8 0 -16 3 -18 8 -12 27 -231 102
-285 97 -18 -2 -30 1 -27 6 3 5 20 9 39 9 77 0 281 85 332 139 13 13 23 21 23
18 0 -10 72 64 103 105 63 82 127 236 129 308 1 16 5 30 9 30 5 0 6 8 3 18 -5
13 -4 14 4 3 6 -8 8 -20 6 -26z"/>
<path d="M1390 3800 c0 -5 5 -10 11 -10 5 0 7 5 4 10 -3 6 -8 10 -11 10 -2 0
-4 -4 -4 -10z"/>
<path d="M1296 3742 c-3 -4 4 -9 15 -9 23 -2 25 3 4 10 -8 4 -16 3 -19 -1z"/>
<path d="M1153 3725 c0 -8 4 -12 9 -9 5 3 6 10 3 15 -9 13 -12 11 -12 -6z"/>
<path d="M1110 3719 c0 -5 5 -7 10 -4 6 3 10 8 10 11 0 2 -4 4 -10 4 -5 0 -10
-5 -10 -11z"/>
<path d="M8721 4515 c-5 -8 -7 -491 -2 -588 1 -9 13 -23 29 -30 15 -6 29 -14
32 -18 4 -4 82 -29 113 -35 4 -1 9 -3 12 -4 3 -1 10 -4 15 -5 6 -1 13 -4 18
-5 4 -1 21 -2 37 -1 25 1 27 -1 10 -8 -11 -5 -38 -11 -60 -14 -22 -2 -53 -10
-70 -17 -16 -6 -31 -11 -33 -10 -7 4 -62 -23 -62 -31 0 -5 -6 -6 -14 -3 -8 3
-17 0 -22 -7 -7 -12 -13 -573 -6 -596 3 -10 159 -13 698 -13 l694 0 0 32 c3
193 0 561 -4 565 -7 7 -54 -24 -115 -77 -19 -17 -39 -30 -43 -30 -5 0 -7 -4
-3 -9 3 -5 -5 -18 -17 -28 -27 -22 -39 -41 -71 -103 -12 -25 -25 -47 -28 -50
-12 -9 -37 -78 -31 -84 3 -3 1 -6 -4 -6 -5 0 -11 -8 -12 -17 -6 -55 -15 -93
-23 -93 -5 0 -10 11 -10 25 -3 47 -4 50 -13 57 -5 3 -10 19 -12 34 -4 36 -67
158 -109 209 -51 62 -67 78 -115 115 -25 19 -47 38 -50 41 -8 11 -171 89 -165
78 6 -9 -20 -2 -40 10 -5 4 -22 8 -36 9 -15 2 -40 7 -55 12 -27 8 -26 8 16 11
25 1 51 2 58 2 6 -1 12 3 12 7 0 4 15 10 33 14 44 9 117 39 117 49 0 5 5 5 10
2 6 -3 10 -1 10 5 0 6 5 8 10 5 6 -3 10 -1 10 4 0 6 7 11 15 11 8 0 15 5 15
10 0 6 5 10 11 10 6 0 45 35 88 78 72 72 154 201 164 258 2 11 10 39 17 64 7
25 12 57 11 72 0 15 2 29 6 31 5 3 9 -11 11 -31 2 -40 6 -59 15 -82 3 -8 11
-36 18 -62 7 -27 16 -48 20 -48 4 0 9 -10 13 -23 9 -37 79 -139 128 -186 45
-43 140 -112 146 -106 6 6 3 597 -3 603 -11 11 -1376 8 -1384 -3z m1049 -1299
c0 -3 -4 -8 -10 -11 -5 -3 -10 -1 -10 4 0 6 5 11 10 11 6 0 10 -2 10 -4z"/>
<path d="M54 2925 c-14 -11 -47 -95 -37 -95 3 0 1 -6 -5 -12 -6 -7 -9 -45 -7
-87 3 -58 10 -87 35 -138 18 -35 38 -67 46 -70 8 -3 14 -11 14 -19 0 -8 6 -14
14 -14 8 0 16 -7 20 -15 3 -8 12 -15 21 -15 8 0 15 -7 15 -15 0 -8 5 -15 11
-15 17 0 59 -36 51 -44 -3 -4 1 -4 11 0 10 4 17 1 17 -6 0 -7 7 -10 15 -6 14
5 20 -5 16 -27 -1 -5 2 -6 7 -3 12 7 72 -16 72 -27 0 -4 4 -5 10 -2 6 3 10 2
10 -3 0 -5 6 -9 13 -9 6 0 28 -7 47 -15 74 -33 161 -62 218 -74 8 -1 21 -6 30
-10 9 -4 26 -9 37 -11 38 -8 50 -11 50 -13 0 -1 11 -3 25 -5 31 -4 67 -11 100
-19 42 -10 99 -17 254 -30 73 -6 85 -15 23 -18 -63 -2 -95 -5 -137 -12 -19 -3
-51 -8 -70 -10 -19 -2 -42 -7 -50 -10 -8 -3 -31 -8 -50 -11 -39 -6 -48 -9 -72
-19 -9 -4 -25 -9 -35 -11 -10 -2 -19 -4 -20 -5 -2 -2 -6 -3 -10 -5 -5 -1 -21
-7 -38 -14 -16 -7 -38 -14 -49 -17 -10 -2 -25 -9 -34 -16 -8 -7 -18 -12 -21
-11 -10 4 -173 -78 -221 -111 -25 -16 -60 -44 -78 -61 -87 -79 -113 -105 -107
-105 3 0 -1 -7 -9 -16 -9 -9 -29 -32 -44 -52 -15 -21 -29 -39 -32 -42 -12 -11
-50 -82 -50 -93 0 -9 304 -12 1322 -10 728 1 1326 2 1330 2 7 1 -29 76 -47 98
-5 7 -16 19 -22 27 -7 8 -13 18 -13 20 0 13 -134 152 -175 181 -16 11 -34 26
-41 33 -7 6 -17 12 -23 12 -6 0 -11 5 -11 10 0 6 -9 10 -20 10 -11 0 -20 4
-20 8 0 4 -12 13 -28 20 -15 7 -61 30 -102 51 -41 22 -78 37 -82 34 -5 -2 -10
2 -13 9 -3 8 -16 15 -29 16 -13 1 -44 11 -70 21 -25 11 -49 20 -51 20 -3 0
-30 5 -60 11 -30 6 -58 12 -62 12 -5 0 -18 4 -30 9 -22 8 -124 21 -186 23 -41
1 -26 21 19 23 21 1 62 4 89 8 28 4 70 9 95 11 83 9 90 10 96 17 4 3 33 9 65
13 33 4 59 11 59 15 0 5 3 8 8 7 15 -4 92 14 98 23 3 5 15 9 28 9 12 0 26 3
30 7 3 4 12 8 19 9 36 5 249 110 277 137 11 10 20 14 20 10 0 -4 4 -3 8 2 4 6
26 23 49 38 117 80 182 201 177 329 -3 79 -12 116 -34 148 l-18 25 -1323 0
c-866 0 -1327 -3 -1335 -10z m1530 -816 c-3 -5 -13 -5 -23 1 -10 5 -22 6 -26
2 -5 -4 -5 -2 -2 4 4 6 18 9 32 7 13 -3 22 -9 19 -14z"/>
<path d="M8023 2926 c-9 -14 -7 -541 2 -556 6 -10 10 -9 17 4 5 9 14 16 19 16
6 0 25 11 43 25 18 14 39 25 46 25 7 0 10 3 7 6 -10 10 35 45 50 39 8 -2 11 0
8 5 -4 6 6 25 20 42 25 29 46 69 51 93 1 6 3 13 4 18 6 18 8 29 9 64 1 50 14
34 15 -20 1 -24 6 -50 12 -58 6 -8 15 -24 18 -36 4 -11 20 -36 36 -55 16 -18
30 -36 30 -40 0 -5 7 -8 16 -8 8 0 12 -4 9 -10 -3 -5 1 -10 10 -10 8 0 18 -7
21 -15 4 -8 13 -15 20 -15 8 0 17 -7 20 -15 4 -8 10 -15 15 -15 5 0 33 -16 64
-35 30 -20 63 -38 73 -42 9 -3 29 -14 43 -24 14 -10 29 -16 32 -13 3 3 16 0
29 -7 12 -7 25 -14 28 -14 3 0 30 -10 60 -22 61 -24 216 -69 270 -78 61 -11
75 -13 75 -15 0 -2 36 -9 71 -13 17 -2 36 -7 42 -11 7 -4 12 -1 12 6 0 8 3 9
8 3 7 -9 21 -11 131 -18 63 -3 62 -22 -2 -23 -81 -2 -150 -11 -232 -31 -16 -4
-38 -8 -47 -9 -10 -1 -20 -3 -23 -4 -3 -1 -9 -4 -15 -5 -5 -1 -12 -4 -15 -5
-3 -1 -8 -3 -12 -4 -9 -1 -85 -29 -168 -61 -83 -33 -228 -105 -237 -119 -4 -6
-8 -7 -8 -1 0 6 -3 6 -8 0 -4 -6 -28 -28 -54 -48 -72 -58 -108 -96 -168 -172
-30 -38 -57 -72 -60 -75 -10 -10 -40 -72 -40 -83 0 -9 288 -12 1192 -10 656 1
1200 2 1209 2 13 1 15 22 15 154 0 95 -4 156 -10 162 -27 25 -138 95 -151 95
-8 0 -15 4 -15 8 0 5 -22 19 -50 32 -27 13 -50 26 -50 30 0 3 -10 6 -22 7 -11
1 -25 8 -29 15 -5 7 -9 9 -9 5 0 -4 -10 -2 -22 5 -13 6 -27 13 -33 15 -5 1
-48 14 -95 28 -47 15 -96 29 -110 32 -45 9 -55 11 -55 13 0 1 -30 6 -105 16
-69 8 -92 11 -129 12 -73 4 -22 14 134 28 93 8 130 12 130 14 0 2 15 5 65 13
14 2 39 7 55 11 17 3 39 8 50 10 32 7 157 43 186 54 15 6 30 8 33 5 3 -4 6 -2
6 4 0 9 29 22 50 22 3 0 43 20 90 44 l85 43 1 287 c0 196 -3 287 -10 290 -10
3 -2363 1 -2409 -2 -10 0 -15 -5 -12 -11 3 -5 2 -10 -3 -10 -11 0 -26 -47 -34
-107 -3 -25 -16 -2 -14 26 1 17 -1 28 -5 25 -5 -2 -13 14 -20 36 -7 24 -19 41
-28 41 -70 6 -224 3 -228 -5z m1581 -804 c3 -5 -1 -9 -9 -9 -8 0 -12 4 -9 9 3
4 7 8 9 8 2 0 6 -4 9 -8z m250 0 c3 -5 -1 -9 -9 -9 -8 0 -12 4 -9 9 3 4 7 8 9
8 2 0 6 -4 9 -8z"/>
<path d="M150 2379 c0 -5 5 -7 10 -4 6 3 10 8 10 11 0 2 -4 4 -10 4 -5 0 -10
-5 -10 -11z"/>
<path d="M8019 1767 c-3 -83 0 -277 4 -284 4 -6 176 -9 229 -4 9 1 -39 87 -80
141 -18 25 -60 73 -93 107 -50 52 -59 58 -60 40z"/>
</g>
</svg>
